ply
format ascii 1.0
comment VCGLIB generated
element vertex 334
property float x
property float y
property float z
property float nx
property float ny
property float nz
property uchar red
property uchar green
property uchar blue
property uchar alpha
property float texture_u
property float texture_v
element face 332
property list uchar int vertex_indices
end_header
-0.211426 22.14776 -2.845407 0.806083 -0.4178522 -0.4190819 255 255 0 255 0.375 0
-0.211426 23.66563 -2.845407 0.3779895 0.653684 -0.6556076 255 255 0 255 0.375 0.25
-0.211426 23.66563 1.180127 0.8269103 0.3970454 0.3982138 255 255 0 255 0.625 0.25
-0.211426 22.14776 1.180127 0.2872281 -0.6763149 0.6783053 255 255 0 255 0.625 0
1.067482 23.76381 -2.845407 -0.08990809 0.7004362 -0.7080294 255 255 0 255 0.375 0.493902
-0.211428 23.66563 -2.845407 -0.8269103 0.3970454 -0.3982138 255 255 0 255 0.375 0.5
-0.211428 23.66563 1.180127 -0.3779895 0.653684 0.6556076 255 255 0 255 0.625 0.5
1.067482 23.76381 1.180127 -0.1256177 0.6949207 0.7080293 255 255 0 255 0.625 0.493902
-0.211428 22.14776 -2.845407 -0.2872281 -0.6763149 -0.6783053 255 255 0 255 0.375 0.75
-0.211428 22.14776 1.180127 -0.806083 -0.4178522 0.4190819 255 255 0 255 0.625 0.75
-1.722038 22.26374 -2.845407 -0.08990883 -0.7004362 -0.7080293 255 255 0 255 0.375 0.993902
-1.722038 22.26374 1.180127 -0.1256177 -0.6949205 0.7080294 255 255 0 255 0.625 0.993902
1.299184 22.26374 -2.845407 0.1256177 -0.6949205 -0.7080294 255 255 0 255 0.368902 0.75
-1.490336 23.76381 1.180127 0.08990809 0.7004362 0.7080294 255 255 0 255 0.868902 0.5
1.299184 22.26374 1.180127 0.08990883 -0.7004362 0.7080293 255 255 0 255 0.631098 0.75
2.774386 22.60895 1.180127 0.1957757 -0.678503 0.7080293 255 255 0 255 0.637195 0.75
2.316415 24.05608 1.180127 -0.2302247 0.667601 0.7080293 255 255 0 255 0.637195 0.5
4.179603 23.1753 1.180127 0.2970546 -0.6406662 0.7080293 255 255 0 255 0.643293 0.75
3.506098 24.53556 1.180127 -0.3294356 0.6246332 0.7080294 255 255 0 255 0.643293 0.5
5.4819 23.94952 1.180127 0.3913699 -0.5878128 0.7080294 255 255 0 255 0.64939 0.75
4.608643 25.19103 1.180127 -0.4209244 0.5670247 0.7080294 255 255 0 255 0.64939 0.5
6.650748 24.91346 1.180127 0.4765128 -0.5211813 0.7080294 255 255 0 255 0.655488 0.75
5.598211 26.00712 1.180127 -0.5025471 0.4961257 0.7080294 255 255 0 255 0.655488 0.5
7.658755 26.04453 1.180127 0.5504864 -0.4423338 0.7080293 255 255 0 255 0.661585 0.75
6.451605 26.96471 1.180127 -0.572391 0.4135977 0.7080293 255 255 0 255 0.661585 0.5
8.48229 27.31622 1.180127 0.6115566 -0.353119 0.7080293 255 255 0 255 0.667683 0.75
7.148824 28.04134 1.180127 -0.6288181 0.3213757 0.7080293 255 255 0 255 0.667683 0.5
9.102052 28.69871 1.180127 0.6582928 -0.2556266 0.7080294 255 255 0 255 0.67378 0.75
7.673525 29.21178 1.180127 -0.6705063 0.2216209 0.7080294 255 255 0 255 0.67378 0.5
9.503513 30.15961 1.180127 0.6895992 -0.1521427 0.7080294 255 255 0 255 0.679878 0.75
8.01341 30.4486 1.180127 -0.6964785 0.116671 0.7080294 255 255 0 255 0.679878 0.5
9.677266 31.66467 1.180127 0.7047418 -0.04509334 0.7080293 255 255 0 255 0.685976 0.75
8.16051 31.72281 1.180127 -0.7061259 0.008986629 0.7080294 255 255 0 255 0.685976 0.5
9.619236 33.17861 1.180127 0.703366 0.06301394 0.7080293 255 255 0 255 0.692073 0.75
8.11138 33.00454 1.180127 -0.6992223 -0.09890776 0.7080294 255 255 0 255 0.692073 0.5
9.330783 34.66595 1.180126 0.6855037 0.169644 0.7080294 255 255 0 255 0.698171 0.75
7.867171 34.26375 1.180126 -0.6759294 -0.2044845 0.7080294 255 255 0 255 0.698171 0.5
8.818668 36.09184 1.180126 0.651574 0.2722973 0.7080294 255 255 0 255 0.704268 0.75
7.433605 35.47092 1.180126 -0.6367934 -0.3052681 0.7080294 255 255 0 255 0.704268 0.5
8.094896 37.42283 1.180126 0.6023719 0.3685682 0.7080294 255 255 0 255 0.710366 0.75
6.820848 36.59777 1.180126 -0.5827313 -0.3988968 0.7080294 255 255 0 255 0.710366 0.5
7.176432 38.62774 1.180127 0.5390511 0.4561998 0.7080296 255 255 0 255 0.716463 0.75
6.04326 37.61787 1.180126 -0.5150104 -0.4831757 0.7080294 255 255 0 255 0.716463 0.5
6.084801 39.67833 1.180127 0.4630947 0.5331392 0.7080296 255 255 0 255 0.722561 0.75
5.119066 38.50732 1.180127 -0.4352183 -0.5561288 0.7080295 255 255 0 255 0.722561 0.5
4.845592 40.54997 1.180127 0.3762836 0.5975825 0.7080295 255 255 0 255 0.728658 0.75
4.06993 39.24526 1.180127 -0.3452252 -0.616047 0.7080294 255 255 0 255 0.728658 0.5
3.487852 41.22223 1.180127 0.2806536 0.6480184 0.7080295 255 255 0 255 0.734756 0.75
2.920443 39.81441 1.180127 -0.2471403 -0.6615257 0.7080293 255 255 0 255 0.734756 0.5
2.043402 41.67936 1.180127 0.1784447 0.6832656 0.7080295 255 255 0 255 0.740854 0.75
1.697548 40.20142 1.180127 -0.1432631 -0.6914985 0.7080293 255 255 0 255 0.740854 0.5
0.546102 41.91063 1.180127 0.07205273 0.7024976 0.7080293 255 255 0 255 0.746951 0.75
0.429908 40.39722 1.180127 -0.03602703 -0.7052634 0.7080294 255 255 0 255 0.746951 0.5
-0.968953 41.91063 1.180127 -0.03602635 0.7052635 0.7080293 255 255 0 255 0.753049 0.75
-0.852764 40.39722 1.180127 0.07205409 -0.7024975 0.7080294 255 255 0 255 0.753049 0.5
-2.466254 41.67936 1.180127 -0.1432619 0.6914988 0.7080294 255 255 0 255 0.759146 0.75
-2.120404 40.20142 1.180127 0.178445 -0.6832655 0.7080294 255 255 0 255 0.759146 0.5
-3.910703 41.22224 1.180127 -0.2471406 0.6615257 0.7080293 255 255 0 255 0.765244 0.75
-3.3433 39.81441 1.180127 0.2806535 -0.6480186 0.7080293 255 255 0 255 0.765244 0.5
-5.268443 40.54998 1.180127 -0.3452254 0.6160471 0.7080292 255 255 0 255 0.771341 0.75
-4.492786 39.24526 1.180127 0.3762839 -0.5975827 0.7080292 255 255 0 255 0.771341 0.5
-6.507652 39.67834 1.180127 -0.4352185 0.5561289 0.7080293 255 255 0 255 0.777439 0.75
-5.541922 38.50731 1.180127 0.4630945 -0.53314 0.7080292 255 255 0 255 0.777439 0.5
-7.599283 38.62775 1.180127 -0.515011 0.4831749 0.7080294 255 255 0 255 0.783537 0.75
-6.466115 37.61787 1.180126 0.5390507 -0.4562007 0.7080292 255 255 0 255 0.783537 0.5
-8.517748 37.42283 1.180126 -0.5827316 0.3988963 0.7080294 255 255 0 255 0.789634 0.75
-7.243703 36.59777 1.180126 0.6023719 -0.3685682 0.7080294 255 255 0 255 0.789634 0.5
-9.24152 36.09184 1.180126 -0.6367931 0.3052686 0.7080294 255 255 0 255 0.795732 0.75
-7.856461 35.47092 1.180126 0.6515741 -0.272297 0.7080294 255 255 0 255 0.795732 0.5
-9.753635 34.66596 1.180126 -0.6759292 0.2044851 0.7080294 255 255 0 255 0.801829 0.75
-8.290025 34.26375 1.180126 0.685504 -0.169643 0.7080294 255 255 0 255 0.801829 0.5
-10.04209 33.17862 1.180127 -0.6992221 0.09890855 0.7080294 255 255 0 255 0.807927 0.75
-8.534234 33.00454 1.180127 0.703366 -0.06301358 0.7080294 255 255 0 255 0.807927 0.5
-10.10012 31.66467 1.180127 -0.7061259 -0.008987118 0.7080294 255 255 0 255 0.814024 0.75
-8.583364 31.72281 1.180127 0.7047419 0.04509283 0.7080294 255 255 0 255 0.814024 0.5
-9.926367 30.15961 1.180127 -0.6964785 -0.1166712 0.7080293 255 255 0 255 0.820122 0.75
-8.436262 30.4486 1.180127 0.6895992 0.1521426 0.7080294 255 255 0 255 0.820122 0.5
-9.524907 28.69872 1.180127 -0.6705064 -0.2216204 0.7080294 255 255 0 255 0.826219 0.75
-8.096378 29.21178 1.180127 0.6582928 0.2556268 0.7080294 255 255 0 255 0.82622 0.5
-8.905145 27.31622 1.180127 -0.628818 -0.3213758 0.7080294 255 255 0 255 0.832317 0.75
-7.571677 28.04134 1.180127 0.6115567 0.3531186 0.7080294 255 255 0 255 0.832317 0.5
-8.08161 26.04454 1.180127 -0.5723909 -0.4135976 0.7080294 255 255 0 255 0.838415 0.75
-6.874458 26.9647 1.180127 0.5504866 0.4423337 0.7080293 255 255 0 255 0.838415 0.5
-7.073606 24.91347 1.180127 -0.5025474 -0.4961255 0.7080294 255 255 0 255 0.844512 0.75
-6.021063 26.00712 1.180127 0.4765126 0.5211817 0.7080293 255 255 0 255 0.844512 0.5
-5.904756 23.94952 1.180127 -0.4209241 -0.5670251 0.7080293 255 255 0 255 0.85061 0.75
-5.031495 25.19103 1.180127 0.3913705 0.5878127 0.7080293 255 255 0 255 0.85061 0.5
-4.602461 23.1753 1.180127 -0.3294351 -0.6246335 0.7080293 255 255 0 255 0.856707 0.75
-3.928948 24.53556 1.180127 0.2970545 0.6406661 0.7080294 255 255 0 255 0.856707 0.5
-3.197242 22.60895 1.180127 -0.2302248 -0.6676008 0.7080295 255 255 0 255 0.862805 0.75
-2.739267 24.05608 1.180127 0.195776 0.6785029 0.7080294 255 255 0 255 0.862805 0.5
-1.490336 23.76381 -2.845407 0.1256177 0.6949207 -0.7080293 255 255 0 255 0.131098 0.5
-3.19724 22.60895 -2.845407 -0.1957757 -0.678503 -0.7080293 255 255 0 255 0.137195 0.75
-2.739269 24.05608 -2.845407 0.2302247 0.667601 -0.7080293 255 255 0 255 0.137195 0.5
-4.602457 23.1753 -2.845407 -0.2970545 -0.6406661 -0.7080293 255 255 0 255 0.143293 0.75
-3.928952 24.53556 -2.845407 0.3294356 0.6246331 -0.7080294 255 255 0 255 0.143293 0.5
-5.904754 23.94952 -2.845407 -0.3913698 -0.5878128 -0.7080294 255 255 0 255 0.14939 0.75
-5.031497 25.19103 -2.845407 0.4209241 0.5670249 -0.7080294 255 255 0 255 0.14939 0.5
-7.073603 24.91346 -2.845407 -0.4765128 -0.5211813 -0.7080294 255 255 0 255 0.155488 0.75
-6.021066 26.00712 -2.845407 0.5025472 0.4961255 -0.7080295 255 255 0 255 0.155488 0.5
-8.081609 26.04453 -2.845407 -0.5504866 -0.4423336 -0.7080293 255 255 0 255 0.161585 0.75
-6.874459 26.96471 -2.845407 0.5723911 0.4135976 -0.7080293 255 255 0 255 0.161585 0.5
-8.905144 27.31622 -2.845407 -0.6115568 -0.3531188 -0.7080293 255 255 0 255 0.167683 0.75
-7.571678 28.04134 -2.845407 0.628818 0.3213758 -0.7080293 255 255 0 255 0.167683 0.5
-9.524905 28.69871 -2.845407 -0.6582928 -0.2556266 -0.7080294 255 255 0 255 0.173781 0.75
-8.096379 29.21178 -2.845407 0.6705064 0.2216206 -0.7080293 255 255 0 255 0.17378 0.5
-9.926367 30.15961 -2.845407 -0.6895992 -0.1521427 -0.7080294 255 255 0 255 0.179878 0.75
-8.436263 30.4486 -2.845407 0.6964785 0.1166708 -0.7080293 255 255 0 255 0.179878 0.5
-10.10012 31.66467 -2.845407 -0.7047418 -0.04509334 -0.7080294 255 255 0 255 0.185976 0.75
-8.583364 31.72281 -2.845407 0.7061259 0.008986781 -0.7080293 255 255 0 255 0.185976 0.5
-10.04209 33.17861 -2.845407 -0.7033659 0.06301375 -0.7080294 255 255 0 255 0.192073 0.75
-8.534233 33.00454 -2.845406 0.6992223 -0.09890804 -0.7080293 255 255 0 255 0.192073 0.5
-9.753636 34.66595 -2.845407 -0.6855037 0.1696436 -0.7080294 255 255 0 255 0.198171 0.75
-8.290025 34.26375 -2.845407 0.6759294 -0.2044846 -0.7080293 255 255 0 255 0.198171 0.5
-9.241522 36.09184 -2.845407 -0.651574 0.2722973 -0.7080294 255 255 0 255 0.204268 0.75
-7.856459 35.47092 -2.845407 0.6367934 -0.3052683 -0.7080293 255 255 0 255 0.204268 0.5
-8.51775 37.42283 -2.845407 -0.6023719 0.3685682 -0.7080293 255 255 0 255 0.210366 0.75
-7.243701 36.59777 -2.845407 0.5827314 -0.3988967 -0.7080294 255 255 0 255 0.210366 0.5
-7.599286 38.62774 -2.845407 -0.539051 0.4561999 -0.7080294 255 255 0 255 0.216463 0.75
-6.466113 37.61787 -2.845407 0.5150105 -0.4831754 -0.7080294 255 255 0 255 0.216463 0.5
-6.507655 39.67833 -2.845407 -0.4630945 0.5331395 -0.7080295 255 255 0 255 0.222561 0.75
-5.54192 38.50732 -2.845407 0.4352184 -0.5561288 -0.7080295 255 255 0 255 0.222561 0.5
-5.268446 40.54997 -2.845407 -0.3762837 0.5975826 -0.7080294 255 255 0 255 0.228659 0.75
-4.492784 39.24526 -2.845407 0.3452252 -0.616047 -0.7080294 255 255 0 255 0.228658 0.5
-3.910706 41.22223 -2.845407 -0.2806537 0.6480184 -0.7080295 255 255 0 255 0.234756 0.75
-3.343297 39.81441 -2.845407 0.2471402 -0.6615257 -0.7080293 255 255 0 255 0.234756 0.5
-2.466256 41.67936 -2.845407 -0.1784446 0.6832656 -0.7080295 255 255 0 255 0.240854 0.75
-2.120402 40.20142 -2.845407 0.1432631 -0.6914985 -0.7080293 255 255 0 255 0.240854 0.5
-0.968956 41.91063 -2.845407 -0.07205271 0.7024976 -0.7080293 255 255 0 255 0.246951 0.75
-0.852762 40.39722 -2.845407 0.03602704 -0.7052634 -0.7080294 255 255 0 255 0.246951 0.5
0.5461 41.91063 -2.845407 0.03602637 0.7052635 -0.7080293 255 255 0 255 0.253049 0.75
0.42991 40.39722 -2.845407 -0.07205406 -0.7024975 -0.7080294 255 255 0 255 0.253049 0.5
2.0434 41.67936 -2.845407 0.1432619 0.6914987 -0.7080294 255 255 0 255 0.259146 0.75
1.697551 40.20142 -2.845407 -0.1784451 -0.6832655 -0.7080294 255 255 0 255 0.259146 0.5
3.487849 41.22224 -2.845407 0.2471406 0.6615257 -0.7080293 255 255 0 255 0.265244 0.75
2.920446 39.81441 -2.845407 -0.2806534 -0.6480185 -0.7080294 255 255 0 255 0.265244 0.5
4.84559 40.54998 -2.845407 0.3452253 0.6160472 -0.7080292 255 255 0 255 0.271342 0.75
4.069933 39.24526 -2.845407 -0.3762839 -0.5975826 -0.7080293 255 255 0 255 0.271341 0.5
6.084799 39.67834 -2.845407 0.4352185 0.556129 -0.7080292 255 255 0 255 0.277439 0.75
5.119068 38.50731 -2.845407 -0.4630945 -0.5331399 -0.7080292 255 255 0 255 0.277439 0.5
7.176429 38.62775 -2.845407 0.515011 0.4831751 -0.7080294 255 255 0 255 0.283537 0.75
6.043261 37.61787 -2.845407 -0.5390508 -0.4562005 -0.7080293 255 255 0 255 0.283537 0.5
8.094894 37.42283 -2.845407 0.5827315 0.3988966 -0.7080294 255 255 0 255 0.289634 0.75
6.820849 36.59777 -2.845407 -0.6023721 -0.368568 -0.7080293 255 255 0 255 0.289634 0.5
8.818666 36.09184 -2.845407 0.6367932 0.3052686 -0.7080294 255 255 0 255 0.295732 0.75
7.433607 35.47092 -2.845407 -0.6515741 -0.2722969 -0.7080294 255 255 0 255 0.295732 0.5
9.330782 34.66596 -2.845407 0.6759292 0.2044847 -0.7080294 255 255 0 255 0.301829 0.75
7.867171 34.26375 -2.845407 -0.6855039 -0.1696437 -0.7080293 255 255 0 255 0.301829 0.5
9.619235 33.17862 -2.845407 0.6992221 0.09890803 -0.7080295 255 255 0 255 0.307927 0.75
8.111381 33.00454 -2.845406 -0.7033661 -0.06301377 -0.7080293 255 255 0 255 0.307927 0.5
9.677266 31.66467 -2.845407 0.7061257 -0.008986813 -0.7080294 255 255 0 255 0.314024 0.75
8.16051 31.72281 -2.845407 -0.7047419 0.0450929 -0.7080293 255 255 0 255 0.314024 0.5
9.503513 30.15961 -2.845407 0.6964785 -0.1166712 -0.7080293 255 255 0 255 0.320122 0.75
8.013409 30.4486 -2.845407 -0.6895992 0.1521429 -0.7080294 255 255 0 255 0.320122 0.5
9.102054 28.69872 -2.845407 0.6705064 -0.2216204 -0.7080294 255 255 0 255 0.326219 0.75
7.673524 29.21178 -2.845407 -0.6582928 0.2556269 -0.7080294 255 255 0 255 0.326219 0.5
8.482291 27.31622 -2.845407 0.6288179 -0.3213759 -0.7080294 255 255 0 255 0.332317 0.75
7.148823 28.04134 -2.845407 -0.6115568 0.3531185 -0.7080294 255 255 0 255 0.332317 0.5
7.658755 26.04454 -2.845407 0.5723908 -0.4135978 -0.7080294 255 255 0 255 0.338415 0.75
6.451604 26.9647 -2.845407 -0.5504863 0.4423339 -0.7080293 255 255 0 255 0.338415 0.5
6.650752 24.91347 -2.845407 0.5025474 -0.4961255 -0.7080294 255 255 0 255 0.344512 0.75
5.598208 26.00712 -2.845407 -0.4765128 0.5211815 -0.7080293 255 255 0 255 0.344512 0.5
5.481901 23.94952 -2.845407 0.4209241 -0.567025 -0.7080293 255 255 0 255 0.35061 0.75
4.608642 25.19103 -2.845407 -0.3913706 0.5878125 -0.7080293 255 255 0 255 0.35061 0.5
4.179607 23.1753 -2.845407 0.3294351 -0.6246334 -0.7080294 255 255 0 255 0.356707 0.75
3.506094 24.53556 -2.845407 -0.2970544 0.6406661 -0.7080294 255 255 0 255 0.356707 0.5
2.774388 22.60895 -2.845407 0.2302248 -0.6676008 -0.7080294 255 255 0 255 0.362805 0.75
2.316413 24.05608 -2.845407 -0.195776 0.6785029 -0.7080294 255 255 0 255 0.362805 0.5
-0.211426 22.14776 -2.845407 0.806083 -0.4178522 -0.4190819 255 255 0 255 0.375 1
-0.211426 22.14776 1.180127 0.2872281 -0.6763149 0.6783053 255 255 0 255 0.625 1
1.067482 23.76381 -2.845407 -0.08990809 0.7004362 -0.7080294 255 255 0 255 0.368902 0.5
-1.722038 22.26374 1.180127 -0.1256177 -0.6949205 0.7080294 255 255 0 255 0.868902 0.75
-0.211426 22.14776 1.180127 0.2872281 -0.6763149 0.6783053 255 255 0 255 0.875 0.75
-0.211426 23.66563 1.180127 0.8269103 0.3970454 0.3982138 255 255 0 255 0.875 0.5
1.067482 23.76381 1.180127 -0.1256177 0.6949207 0.7080293 255 255 0 255 0.631098 0.5
-0.211426 23.66563 -2.845407 0.3779895 0.653684 -0.6556076 255 255 0 255 0.125 0.5
-0.211426 22.14776 -2.845407 0.806083 -0.4178522 -0.4190819 255 255 0 255 0.125 0.75
-1.722038 22.26374 -2.845407 -0.08990883 -0.7004362 -0.7080293 255 255 0 255 0.131098 0.75
1.299184 22.26374 -2.845407 0.1256177 -0.6949205 -0.7080294 255 255 0 255 0.375 0.756098
1.299184 22.26374 1.180127 0.08990883 -0.7004362 0.7080293 255 255 0 255 0.625 0.756098
2.774388 22.60895 -2.845407 0.2302248 -0.6676008 -0.7080294 255 255 0 255 0.375 0.762195
2.774386 22.60895 1.180127 0.1957757 -0.678503 0.7080293 255 255 0 255 0.625 0.762195
4.179607 23.1753 -2.845407 0.3294351 -0.6246334 -0.7080294 255 255 0 255 0.375 0.768293
4.179603 23.1753 1.180127 0.2970546 -0.6406662 0.7080293 255 255 0 255 0.625 0.768293
5.481901 23.94952 -2.845407 0.4209241 -0.567025 -0.7080293 255 255 0 255 0.375 0.77439
5.4819 23.94952 1.180127 0.3913699 -0.5878128 0.7080294 255 255 0 255 0.625 0.77439
6.650752 24.91347 -2.845407 0.5025474 -0.4961255 -0.7080294 255 255 0 255 0.375 0.780488
6.650748 24.91346 1.180127 0.4765128 -0.5211813 0.7080294 255 255 0 255 0.625 0.780488
7.658755 26.04454 -2.845407 0.5723908 -0.4135978 -0.7080294 255 255 0 255 0.375 0.786585
7.658755 26.04453 1.180127 0.5504864 -0.4423338 0.7080293 255 255 0 255 0.625 0.786585
8.482291 27.31622 -2.845407 0.6288179 -0.3213759 -0.7080294 255 255 0 255 0.375 0.792683
8.48229 27.31622 1.180127 0.6115566 -0.353119 0.7080293 255 255 0 255 0.625 0.792683
9.102054 28.69872 -2.845407 0.6705064 -0.2216204 -0.7080294 255 255 0 255 0.375 0.79878
9.102052 28.69871 1.180127 0.6582928 -0.2556266 0.7080294 255 255 0 255 0.625 0.79878
9.503513 30.15961 -2.845407 0.6964785 -0.1166712 -0.7080293 255 255 0 255 0.375 0.804878
9.503513 30.15961 1.180127 0.6895992 -0.1521427 0.7080294 255 255 0 255 0.625 0.804878
9.677266 31.66467 -2.845407 0.7061257 -0.008986813 -0.7080294 255 255 0 255 0.375 0.810975
9.677266 31.66467 1.180127 0.7047418 -0.04509334 0.7080293 255 255 0 255 0.625 0.810976
9.619235 33.17862 -2.845407 0.6992221 0.09890803 -0.7080295 255 255 0 255 0.375 0.817073
9.619236 33.17861 1.180127 0.703366 0.06301394 0.7080293 255 255 0 255 0.625 0.817073
9.330782 34.66596 -2.845407 0.6759292 0.2044847 -0.7080294 255 255 0 255 0.375 0.823171
9.330783 34.66595 1.180126 0.6855037 0.169644 0.7080294 255 255 0 255 0.625 0.823171
8.818666 36.09184 -2.845407 0.6367932 0.3052686 -0.7080294 255 255 0 255 0.375 0.829268
8.818668 36.09184 1.180126 0.651574 0.2722973 0.7080294 255 255 0 255 0.625 0.829268
8.094894 37.42283 -2.845407 0.5827315 0.3988966 -0.7080294 255 255 0 255 0.375 0.835366
8.094896 37.42283 1.180126 0.6023719 0.3685682 0.7080294 255 255 0 255 0.625 0.835366
7.176429 38.62775 -2.845407 0.515011 0.4831751 -0.7080294 255 255 0 255 0.375 0.841463
7.176432 38.62774 1.180127 0.5390511 0.4561998 0.7080296 255 255 0 255 0.625 0.841463
6.084799 39.67834 -2.845407 0.4352185 0.556129 -0.7080292 255 255 0 255 0.375 0.847561
6.084801 39.67833 1.180127 0.4630947 0.5331392 0.7080296 255 255 0 255 0.625 0.847561
4.84559 40.54998 -2.845407 0.3452253 0.6160472 -0.7080292 255 255 0 255 0.375 0.853658
4.845592 40.54997 1.180127 0.3762836 0.5975825 0.7080295 255 255 0 255 0.625 0.853658
3.487849 41.22224 -2.845407 0.2471406 0.6615257 -0.7080293 255 255 0 255 0.375 0.859756
3.487852 41.22223 1.180127 0.2806536 0.6480184 0.7080295 255 255 0 255 0.625 0.859756
2.0434 41.67936 -2.845407 0.1432619 0.6914987 -0.7080294 255 255 0 255 0.375 0.865854
2.043402 41.67936 1.180127 0.1784447 0.6832656 0.7080295 255 255 0 255 0.625 0.865854
0.5461 41.91063 -2.845407 0.03602637 0.7052635 -0.7080293 255 255 0 255 0.375 0.871951
0.546102 41.91063 1.180127 0.07205273 0.7024976 0.7080293 255 255 0 255 0.625 0.871951
-0.968956 41.91063 -2.845407 -0.07205271 0.7024976 -0.7080293 255 255 0 255 0.375 0.878049
-0.968953 41.91063 1.180127 -0.03602635 0.7052635 0.7080293 255 255 0 255 0.625 0.878049
-2.466256 41.67936 -2.845407 -0.1784446 0.6832656 -0.7080295 255 255 0 255 0.375 0.884146
-2.466254 41.67936 1.180127 -0.1432619 0.6914988 0.7080294 255 255 0 255 0.625 0.884146
-3.910706 41.22223 -2.845407 -0.2806537 0.6480184 -0.7080295 255 255 0 255 0.375 0.890244
-3.910703 41.22224 1.180127 -0.2471406 0.6615257 0.7080293 255 255 0 255 0.625 0.890244
-5.268446 40.54997 -2.845407 -0.3762837 0.5975826 -0.7080294 255 255 0 255 0.375 0.896341
-5.268443 40.54998 1.180127 -0.3452254 0.6160471 0.7080292 255 255 0 255 0.625 0.896341
-6.507655 39.67833 -2.845407 -0.4630945 0.5331395 -0.7080295 255 255 0 255 0.375 0.902439
-6.507652 39.67834 1.180127 -0.4352185 0.5561289 0.7080293 255 255 0 255 0.625 0.902439
-7.599286 38.62774 -2.845407 -0.539051 0.4561999 -0.7080294 255 255 0 255 0.375 0.908537
-7.599283 38.62775 1.180127 -0.515011 0.4831749 0.7080294 255 255 0 255 0.625 0.908536
-8.51775 37.42283 -2.845407 -0.6023719 0.3685682 -0.7080293 255 255 0 255 0.375 0.914634
-8.517748 37.42283 1.180126 -0.5827316 0.3988963 0.7080294 255 255 0 255 0.625 0.914634
-9.241522 36.09184 -2.845407 -0.651574 0.2722973 -0.7080294 255 255 0 255 0.375 0.920732
-9.24152 36.09184 1.180126 -0.6367931 0.3052686 0.7080294 255 255 0 255 0.625 0.920732
-9.753636 34.66595 -2.845407 -0.6855037 0.1696436 -0.7080294 255 255 0 255 0.375 0.926829
-9.753635 34.66596 1.180126 -0.6759292 0.2044851 0.7080294 255 255 0 255 0.625 0.926829
-10.04209 33.17861 -2.845407 -0.7033659 0.06301375 -0.7080294 255 255 0 255 0.375 0.932927
-10.04209 33.17862 1.180127 -0.6992221 0.09890855 0.7080294 255 255 0 255 0.625 0.932927
-10.10012 31.66467 -2.845407 -0.7047418 -0.04509334 -0.7080294 255 255 0 255 0.375 0.939024
-10.10012 31.66467 1.180127 -0.7061259 -0.008987118 0.7080294 255 255 0 255 0.625 0.939024
-9.926367 30.15961 -2.845407 -0.6895992 -0.1521427 -0.7080294 255 255 0 255 0.375 0.945122
-9.926367 30.15961 1.180127 -0.6964785 -0.1166712 0.7080293 255 255 0 255 0.625 0.945122
-9.524905 28.69871 -2.845407 -0.6582928 -0.2556266 -0.7080294 255 255 0 255 0.375 0.951219
-9.524907 28.69872 1.180127 -0.6705064 -0.2216204 0.7080294 255 255 0 255 0.625 0.951219
-8.905144 27.31622 -2.845407 -0.6115568 -0.3531188 -0.7080293 255 255 0 255 0.375 0.957317
-8.905145 27.31622 1.180127 -0.628818 -0.3213758 0.7080294 255 255 0 255 0.625 0.957317
-8.081609 26.04453 -2.845407 -0.5504866 -0.4423336 -0.7080293 255 255 0 255 0.375 0.963415
-8.08161 26.04454 1.180127 -0.5723909 -0.4135976 0.7080294 255 255 0 255 0.625 0.963414
-7.073603 24.91346 -2.845407 -0.4765128 -0.5211813 -0.7080294 255 255 0 255 0.375 0.969512
-7.073606 24.91347 1.180127 -0.5025474 -0.4961255 0.7080294 255 255 0 255 0.625 0.969512
-5.904754 23.94952 -2.845407 -0.3913698 -0.5878128 -0.7080294 255 255 0 255 0.375 0.97561
-5.904756 23.94952 1.180127 -0.4209241 -0.5670251 0.7080293 255 255 0 255 0.625 0.97561
-4.602457 23.1753 -2.845407 -0.2970545 -0.6406661 -0.7080293 255 255 0 255 0.375 0.981707
-4.602461 23.1753 1.180127 -0.3294351 -0.6246335 0.7080293 255 255 0 255 0.625 0.981707
-3.19724 22.60895 -2.845407 -0.1957757 -0.678503 -0.7080293 255 255 0 255 0.375 0.987805
-3.197242 22.60895 1.180127 -0.2302248 -0.6676008 0.7080295 255 255 0 255 0.625 0.987805
-1.490336 23.76381 -2.845407 0.1256177 0.6949207 -0.7080293 255 255 0 255 0.375 0.256098
-1.490336 23.76381 1.180127 0.08990809 0.7004362 0.7080294 255 255 0 255 0.625 0.256098
-2.739269 24.05608 -2.845407 0.2302247 0.667601 -0.7080293 255 255 0 255 0.375 0.262195
-2.739267 24.05608 1.180127 0.195776 0.6785029 0.7080294 255 255 0 255 0.625 0.262195
-3.928952 24.53556 -2.845407 0.3294356 0.6246331 -0.7080294 255 255 0 255 0.375 0.268293
-3.928948 24.53556 1.180127 0.2970545 0.6406661 0.7080294 255 255 0 255 0.625 0.268293
-5.031497 25.19103 -2.845407 0.4209241 0.5670249 -0.7080294 255 255 0 255 0.375 0.27439
-5.031495 25.19103 1.180127 0.3913705 0.5878127 0.7080293 255 255 0 255 0.625 0.27439
-6.021066 26.00712 -2.845407 0.5025472 0.4961255 -0.7080295 255 255 0 255 0.375 0.280488
-6.021063 26.00712 1.180127 0.4765126 0.5211817 0.7080293 255 255 0 255 0.625 0.280488
-6.874459 26.96471 -2.845407 0.5723911 0.4135976 -0.7080293 255 255 0 255 0.375 0.286585
-6.874458 26.9647 1.180127 0.5504866 0.4423337 0.7080293 255 255 0 255 0.625 0.286585
-7.571678 28.04134 -2.845407 0.628818 0.3213758 -0.7080293 255 255 0 255 0.375 0.292683
-7.571677 28.04134 1.180127 0.6115567 0.3531186 0.7080294 255 255 0 255 0.625 0.292683
-8.096379 29.21178 -2.845407 0.6705064 0.2216206 -0.7080293 255 255 0 255 0.375 0.29878
-8.096378 29.21178 1.180127 0.6582928 0.2556268 0.7080294 255 255 0 255 0.625 0.29878
-8.436263 30.4486 -2.845407 0.6964785 0.1166708 -0.7080293 255 255 0 255 0.375 0.304878
-8.436262 30.4486 1.180127 0.6895992 0.1521426 0.7080294 255 255 0 255 0.625 0.304878
-8.583364 31.72281 -2.845407 0.7061259 0.008986781 -0.7080293 255 255 0 255 0.375 0.310976
-8.583364 31.72281 1.180127 0.7047419 0.04509283 0.7080294 255 255 0 255 0.625 0.310976
-8.534233 33.00454 -2.845406 0.6992223 -0.09890804 -0.7080293 255 255 0 255 0.375 0.317073
-8.534234 33.00454 1.180127 0.703366 -0.06301358 0.7080294 255 255 0 255 0.625 0.317073
-8.290025 34.26375 -2.845407 0.6759294 -0.2044846 -0.7080293 255 255 0 255 0.375 0.323171
-8.290025 34.26375 1.180126 0.685504 -0.169643 0.7080294 255 255 0 255 0.625 0.323171
-7.856459 35.47092 -2.845407 0.6367934 -0.3052683 -0.7080293 255 255 0 255 0.375 0.329268
-7.856461 35.47092 1.180126 0.6515741 -0.272297 0.7080294 255 255 0 255 0.625 0.329268
-7.243701 36.59777 -2.845407 0.5827314 -0.3988967 -0.7080294 255 255 0 255 0.375 0.335366
-7.243703 36.59777 1.180126 0.6023719 -0.3685682 0.7080294 255 255 0 255 0.625 0.335366
-6.466113 37.61787 -2.845407 0.5150105 -0.4831754 -0.7080294 255 255 0 255 0.375 0.341463
-6.466115 37.61787 1.180126 0.5390507 -0.4562007 0.7080292 255 255 0 255 0.625 0.341463
-5.54192 38.50732 -2.845407 0.4352184 -0.5561288 -0.7080295 255 255 0 255 0.375 0.347561
-5.541922 38.50731 1.180127 0.4630945 -0.53314 0.7080292 255 255 0 255 0.625 0.347561
-4.492784 39.24526 -2.845407 0.3452252 -0.616047 -0.7080294 255 255 0 255 0.375 0.353658
-4.492786 39.24526 1.180127 0.3762839 -0.5975827 0.7080292 255 255 0 255 0.625 0.353658
-3.343297 39.81441 -2.845407 0.2471402 -0.6615257 -0.7080293 255 255 0 255 0.375 0.359756
-3.3433 39.81441 1.180127 0.2806535 -0.6480186 0.7080293 255 255 0 255 0.625 0.359756
-2.120402 40.20142 -2.845407 0.1432631 -0.6914985 -0.7080293 255 255 0 255 0.375 0.365854
-2.120404 40.20142 1.180127 0.178445 -0.6832655 0.7080294 255 255 0 255 0.625 0.365854
-0.852762 40.39722 -2.845407 0.03602704 -0.7052634 -0.7080294 255 255 0 255 0.375 0.371951
-0.852764 40.39722 1.180127 0.07205409 -0.7024975 0.7080294 255 255 0 255 0.625 0.371951
0.42991 40.39722 -2.845407 -0.07205406 -0.7024975 -0.7080294 255 255 0 255 0.375 0.378049
0.429908 40.39722 1.180127 -0.03602703 -0.7052634 0.7080294 255 255 0 255 0.625 0.378049
1.697551 40.20142 -2.845407 -0.1784451 -0.6832655 -0.7080294 255 255 0 255 0.375 0.384146
1.697548 40.20142 1.180127 -0.1432631 -0.6914985 0.7080293 255 255 0 255 0.625 0.384146
2.920446 39.81441 -2.845407 -0.2806534 -0.6480185 -0.7080294 255 255 0 255 0.375 0.390244
2.920443 39.81441 1.180127 -0.2471403 -0.6615257 0.7080293 255 255 0 255 0.625 0.390244
4.069933 39.24526 -2.845407 -0.3762839 -0.5975826 -0.7080293 255 255 0 255 0.375 0.396341
4.06993 39.24526 1.180127 -0.3452252 -0.616047 0.7080294 255 255 0 255 0.625 0.396341
5.119068 38.50731 -2.845407 -0.4630945 -0.5331399 -0.7080292 255 255 0 255 0.375 0.402439
5.119066 38.50732 1.180127 -0.4352183 -0.5561288 0.7080295 255 255 0 255 0.625 0.402439
6.043261 37.61787 -2.845407 -0.5390508 -0.4562005 -0.7080293 255 255 0 255 0.375 0.408537
6.04326 37.61787 1.180126 -0.5150104 -0.4831757 0.7080294 255 255 0 255 0.625 0.408536
6.820849 36.59777 -2.845407 -0.6023721 -0.368568 -0.7080293 255 255 0 255 0.375 0.414634
6.820848 36.59777 1.180126 -0.5827313 -0.3988968 0.7080294 255 255 0 255 0.625 0.414634
7.433607 35.47092 -2.845407 -0.6515741 -0.2722969 -0.7080294 255 255 0 255 0.375 0.420732
7.433605 35.47092 1.180126 -0.6367934 -0.3052681 0.7080294 255 255 0 255 0.625 0.420732
7.867171 34.26375 -2.845407 -0.6855039 -0.1696437 -0.7080293 255 255 0 255 0.375 0.426829
7.867171 34.26375 1.180126 -0.6759294 -0.2044845 0.7080294 255 255 0 255 0.625 0.426829
8.111381 33.00454 -2.845406 -0.7033661 -0.06301377 -0.7080293 255 255 0 255 0.375 0.432927
8.11138 33.00454 1.180127 -0.6992223 -0.09890776 0.7080294 255 255 0 255 0.625 0.432927
8.16051 31.72281 -2.845407 -0.7047419 0.0450929 -0.7080293 255 255 0 255 0.375 0.439024
8.16051 31.72281 1.180127 -0.7061259 0.008986629 0.7080294 255 255 0 255 0.625 0.439024
8.013409 30.4486 -2.845407 -0.6895992 0.1521429 -0.7080294 255 255 0 255 0.375 0.445122
8.01341 30.4486 1.180127 -0.6964785 0.116671 0.7080294 255 255 0 255 0.625 0.445122
7.673524 29.21178 -2.845407 -0.6582928 0.2556269 -0.7080294 255 255 0 255 0.375 0.45122
7.673525 29.21178 1.180127 -0.6705063 0.2216209 0.7080294 255 255 0 255 0.625 0.451219
7.148823 28.04134 -2.845407 -0.6115568 0.3531185 -0.7080294 255 255 0 255 0.375 0.457317
7.148824 28.04134 1.180127 -0.6288181 0.3213757 0.7080293 255 255 0 255 0.625 0.457317
6.451604 26.9647 -2.845407 -0.5504863 0.4423339 -0.7080293 255 255 0 255 0.375 0.463415
6.451605 26.96471 1.180127 -0.572391 0.4135977 0.7080293 255 255 0 255 0.625 0.463415
5.598208 26.00712 -2.845407 -0.4765128 0.5211815 -0.7080293 255 255 0 255 0.375 0.469512
5.598211 26.00712 1.180127 -0.5025471 0.4961257 0.7080294 255 255 0 255 0.625 0.469512
4.608642 25.19103 -2.845407 -0.3913706 0.5878125 -0.7080293 255 255 0 255 0.375 0.47561
4.608643 25.19103 1.180127 -0.4209244 0.5670247 0.7080294 255 255 0 255 0.625 0.47561
3.506094 24.53556 -2.845407 -0.2970544 0.6406661 -0.7080294 255 255 0 255 0.375 0.481707
3.506098 24.53556 1.180127 -0.3294356 0.6246332 0.7080294 255 255 0 255 0.625 0.481707
2.316413 24.05608 -2.845407 -0.195776 0.6785029 -0.7080294 255 255 0 255 0.375 0.487805
2.316415 24.05608 1.180127 -0.2302247 0.667601 0.7080293 255 255 0 255 0.625 0.487805
3 0 1 2 
3 0 2 3 
3 4 5 6 
3 4 6 7 
3 5 8 9 
3 5 9 6 
3 10 168 169 
3 10 169 11 
3 170 12 8 
3 170 8 5 
3 13 171 172 
3 13 172 173 
3 6 9 14 
3 6 14 174 
3 174 14 15 
3 174 15 16 
3 16 15 17 
3 16 17 18 
3 18 17 19 
3 18 19 20 
3 20 19 21 
3 20 21 22 
3 22 21 23 
3 22 23 24 
3 24 23 25 
3 24 25 26 
3 26 25 27 
3 26 27 28 
3 28 27 29 
3 28 29 30 
3 30 29 31 
3 30 31 32 
3 32 31 33 
3 32 33 34 
3 34 33 35 
3 34 35 36 
3 36 35 37 
3 36 37 38 
3 38 37 39 
3 38 39 40 
3 40 39 41 
3 40 41 42 
3 42 41 43 
3 42 43 44 
3 44 43 45 
3 44 45 46 
3 46 45 47 
3 46 47 48 
3 48 47 49 
3 48 49 50 
3 50 49 51 
3 50 51 52 
3 52 51 53 
3 52 53 54 
3 54 53 55 
3 54 55 56 
3 56 55 57 
3 56 57 58 
3 58 57 59 
3 58 59 60 
3 60 59 61 
3 60 61 62 
3 62 61 63 
3 62 63 64 
3 64 63 65 
3 64 65 66 
3 66 65 67 
3 66 67 68 
3 68 67 69 
3 68 69 70 
3 70 69 71 
3 70 71 72 
3 72 71 73 
3 72 73 74 
3 74 73 75 
3 74 75 76 
3 76 75 77 
3 76 77 78 
3 78 77 79 
3 78 79 80 
3 80 79 81 
3 80 81 82 
3 82 81 83 
3 82 83 84 
3 84 83 85 
3 84 85 86 
3 86 85 87 
3 86 87 88 
3 88 87 89 
3 88 89 90 
3 90 89 171 
3 90 171 13 
3 175 176 177 
3 175 177 91 
3 91 177 92 
3 91 92 93 
3 93 92 94 
3 93 94 95 
3 95 94 96 
3 95 96 97 
3 97 96 98 
3 97 98 99 
3 99 98 100 
3 99 100 101 
3 101 100 102 
3 101 102 103 
3 103 102 104 
3 103 104 105 
3 105 104 106 
3 105 106 107 
3 107 106 108 
3 107 108 109 
3 109 108 110 
3 109 110 111 
3 111 110 112 
3 111 112 113 
3 113 112 114 
3 113 114 115 
3 115 114 116 
3 115 116 117 
3 117 116 118 
3 117 118 119 
3 119 118 120 
3 119 120 121 
3 121 120 122 
3 121 122 123 
3 123 122 124 
3 123 124 125 
3 125 124 126 
3 125 126 127 
3 127 126 128 
3 127 128 129 
3 129 128 130 
3 129 130 131 
3 131 130 132 
3 131 132 133 
3 133 132 134 
3 133 134 135 
3 135 134 136 
3 135 136 137 
3 137 136 138 
3 137 138 139 
3 139 138 140 
3 139 140 141 
3 141 140 142 
3 141 142 143 
3 143 142 144 
3 143 144 145 
3 145 144 146 
3 145 146 147 
3 147 146 148 
3 147 148 149 
3 149 148 150 
3 149 150 151 
3 151 150 152 
3 151 152 153 
3 153 152 154 
3 153 154 155 
3 155 154 156 
3 155 156 157 
3 157 156 158 
3 157 158 159 
3 159 158 160 
3 159 160 161 
3 161 160 162 
3 161 162 163 
3 163 162 164 
3 163 164 165 
3 165 164 166 
3 165 166 167 
3 167 166 12 
3 167 12 170 
3 8 178 179 
3 8 179 9 
3 178 180 181 
3 178 181 179 
3 180 182 183 
3 180 183 181 
3 182 184 185 
3 182 185 183 
3 184 186 187 
3 184 187 185 
3 186 188 189 
3 186 189 187 
3 188 190 191 
3 188 191 189 
3 190 192 193 
3 190 193 191 
3 192 194 195 
3 192 195 193 
3 194 196 197 
3 194 197 195 
3 196 198 199 
3 196 199 197 
3 198 200 201 
3 198 201 199 
3 200 202 203 
3 200 203 201 
3 202 204 205 
3 202 205 203 
3 204 206 207 
3 204 207 205 
3 206 208 209 
3 206 209 207 
3 208 210 211 
3 208 211 209 
3 210 212 213 
3 210 213 211 
3 212 214 215 
3 212 215 213 
3 214 216 217 
3 214 217 215 
3 216 218 219 
3 216 219 217 
3 218 220 221 
3 218 221 219 
3 220 222 223 
3 220 223 221 
3 222 224 225 
3 222 225 223 
3 224 226 227 
3 224 227 225 
3 226 228 229 
3 226 229 227 
3 228 230 231 
3 228 231 229 
3 230 232 233 
3 230 233 231 
3 232 234 235 
3 232 235 233 
3 234 236 237 
3 234 237 235 
3 236 238 239 
3 236 239 237 
3 238 240 241 
3 238 241 239 
3 240 242 243 
3 240 243 241 
3 242 244 245 
3 242 245 243 
3 244 246 247 
3 244 247 245 
3 246 248 249 
3 246 249 247 
3 248 250 251 
3 248 251 249 
3 250 252 253 
3 250 253 251 
3 252 254 255 
3 252 255 253 
3 254 10 11 
3 254 11 255 
3 1 256 257 
3 1 257 2 
3 256 258 259 
3 256 259 257 
3 258 260 261 
3 258 261 259 
3 260 262 263 
3 260 263 261 
3 262 264 265 
3 262 265 263 
3 264 266 267 
3 264 267 265 
3 266 268 269 
3 266 269 267 
3 268 270 271 
3 268 271 269 
3 270 272 273 
3 270 273 271 
3 272 274 275 
3 272 275 273 
3 274 276 277 
3 274 277 275 
3 276 278 279 
3 276 279 277 
3 278 280 281 
3 278 281 279 
3 280 282 283 
3 280 283 281 
3 282 284 285 
3 282 285 283 
3 284 286 287 
3 284 287 285 
3 286 288 289 
3 286 289 287 
3 288 290 291 
3 288 291 289 
3 290 292 293 
3 290 293 291 
3 292 294 295 
3 292 295 293 
3 294 296 297 
3 294 297 295 
3 296 298 299 
3 296 299 297 
3 298 300 301 
3 298 301 299 
3 300 302 303 
3 300 303 301 
3 302 304 305 
3 302 305 303 
3 304 306 307 
3 304 307 305 
3 306 308 309 
3 306 309 307 
3 308 310 311 
3 308 311 309 
3 310 312 313 
3 310 313 311 
3 312 314 315 
3 312 315 313 
3 314 316 317 
3 314 317 315 
3 316 318 319 
3 316 319 317 
3 318 320 321 
3 318 321 319 
3 320 322 323 
3 320 323 321 
3 322 324 325 
3 322 325 323 
3 324 326 327 
3 324 327 325 
3 326 328 329 
3 326 329 327 
3 328 330 331 
3 328 331 329 
3 330 332 333 
3 330 333 331 
3 332 4 7 
3 332 7 333 
