ply
format ascii 1.0
comment VCGLIB generated
element vertex 334
property float x
property float y
property float z
property float nx
property float ny
property float nz
property uchar red
property uchar green
property uchar blue
property uchar alpha
property float texture_u
property float texture_v
element face 332
property list uchar int vertex_indices
end_header
7.301569e-07 2.012767 -9.881433 0.8060831 0.4190819 -0.4178522 255 255 0 255 0.375 0
7.301569e-07 2.012767 -8.363564 0.3779894 0.6556075 0.6536841 255 255 0 255 0.375 0.25
7.301569e-07 -2.012767 -8.363564 0.8269104 -0.3982138 0.3970454 255 255 0 255 0.625 0.25
7.301569e-07 -2.012767 -9.881433 0.2872281 -0.6783053 -0.6763149 255 255 0 255 0.625 0
1.278909 2.012767 -8.265385 -0.08990811 0.7080295 0.7004362 255 255 0 255 0.375 0.493902
-1.266599e-06 2.012767 -8.363564 -0.8269104 0.3982138 0.3970454 255 255 0 255 0.375 0.5
-1.266599e-06 -2.012767 -8.363564 -0.3779894 -0.6556075 0.653684 255 255 0 255 0.625 0.5
1.278909 -2.012767 -8.265385 -0.1256177 -0.7080293 0.6949207 255 255 0 255 0.625 0.493902
-1.266599e-06 2.012767 -9.881433 -0.2872281 0.6783053 -0.6763149 255 255 0 255 0.375 0.75
-1.266599e-06 -2.012767 -9.881433 -0.8060831 -0.4190819 -0.4178522 255 255 0 255 0.625 0.75
-1.510611 2.012767 -9.765453 -0.08990885 0.7080294 -0.7004362 255 255 0 255 0.375 0.993902
-1.510611 -2.012767 -9.765453 -0.1256177 -0.7080294 -0.6949205 255 255 0 255 0.625 0.993902
1.510611 2.012767 -9.765453 0.1256177 0.7080294 -0.6949205 255 255 0 255 0.368902 0.75
-1.278909 -2.012767 -8.265385 0.08990811 -0.7080295 0.7004362 255 255 0 255 0.868902 0.5
1.510611 -2.012767 -9.765453 0.08990885 -0.7080294 -0.7004362 255 255 0 255 0.631098 0.75
2.985813 -2.012768 -9.420244 0.1957757 -0.7080294 -0.678503 255 255 0 255 0.637195 0.75
2.527842 -2.012767 -7.973113 -0.2302247 -0.7080293 0.667601 255 255 0 255 0.637195 0.5
4.39103 -2.012767 -8.853893 0.2970546 -0.7080293 -0.6406661 255 255 0 255 0.643293 0.75
3.717525 -2.012767 -7.493632 -0.3294356 -0.7080294 0.6246332 255 255 0 255 0.643293 0.5
5.693327 -2.012767 -8.079674 0.3913699 -0.7080294 -0.5878128 255 255 0 255 0.64939 0.75
4.82007 -2.012767 -6.838163 -0.4209244 -0.7080294 0.5670247 255 255 0 255 0.64939 0.5
6.862175 -2.012767 -7.115734 0.4765128 -0.7080294 -0.5211813 255 255 0 255 0.655488 0.75
5.809638 -2.012767 -6.022074 -0.5025471 -0.7080294 0.4961257 255 255 0 255 0.655488 0.5
7.870182 -2.012767 -5.984663 0.5504864 -0.7080294 -0.4423338 255 255 0 255 0.661585 0.75
6.663032 -2.012767 -5.064484 -0.572391 -0.7080293 0.4135977 255 255 0 255 0.661585 0.5
8.693717 -2.012767 -4.712975 0.6115566 -0.7080293 -0.353119 255 255 0 255 0.667683 0.75
7.360251 -2.012767 -3.987854 -0.6288181 -0.7080293 0.3213757 255 255 0 255 0.667683 0.5
9.313478 -2.012767 -3.330484 0.6582928 -0.7080294 -0.2556266 255 255 0 255 0.67378 0.75
7.884952 -2.012767 -2.817413 -0.6705063 -0.7080294 0.2216209 255 255 0 255 0.67378 0.5
9.71494 -2.012767 -1.869583 0.6895992 -0.7080294 -0.1521427 255 255 0 255 0.679878 0.75
8.224836 -2.012767 -1.580593 -0.6964785 -0.7080294 0.116671 255 255 0 255 0.679878 0.5
9.888693 -2.012767 -0.3645229 0.7047418 -0.7080294 -0.04509333 255 255 0 255 0.685976 0.75
8.371937 -2.012767 -0.3063831 -0.7061259 -0.7080293 0.008986652 255 255 0 255 0.685976 0.5
9.830663 -2.012767 1.149418 0.703366 -0.7080293 0.06301392 255 255 0 255 0.692073 0.75
8.322806 -2.012767 0.9753456 -0.6992223 -0.7080293 -0.09890774 255 255 0 255 0.692073 0.5
9.54221 -2.012766 2.636757 0.6855037 -0.7080294 0.169644 255 255 0 255 0.698171 0.75
8.078598 -2.012766 2.234554 -0.6759294 -0.7080293 -0.2044845 255 255 0 255 0.698171 0.5
9.030095 -2.012766 4.062645 0.651574 -0.7080294 0.2722973 255 255 0 255 0.704268 0.75
7.645032 -2.012766 3.441727 -0.6367934 -0.7080293 -0.3052681 255 255 0 255 0.704268 0.5
8.306323 -2.012766 5.393634 0.6023719 -0.7080294 0.3685682 255 255 0 255 0.710366 0.75
7.032275 -2.012766 4.568577 -0.5827313 -0.7080294 -0.3988968 255 255 0 255 0.710366 0.5
7.387859 -2.012767 6.598545 0.5390512 -0.7080296 0.4561996 255 255 0 255 0.716463 0.75
6.254687 -2.012766 5.588675 -0.5150104 -0.7080293 -0.4831757 255 255 0 255 0.716463 0.5
6.296228 -2.012767 7.649136 0.4630947 -0.7080296 0.5331392 255 255 0 255 0.722561 0.75
5.330493 -2.012767 6.478127 -0.4352183 -0.7080295 -0.5561289 255 255 0 255 0.722561 0.5
5.057019 -2.012767 8.520774 0.3762836 -0.7080295 0.5975826 255 255 0 255 0.728658 0.75
4.281357 -2.012767 7.216063 -0.3452252 -0.7080294 -0.616047 255 255 0 255 0.728658 0.5
3.699279 -2.012767 9.193035 0.2806536 -0.7080294 0.6480184 255 255 0 255 0.734756 0.75
3.13187 -2.012767 7.785216 -0.2471403 -0.7080293 -0.6615257 255 255 0 255 0.734756 0.5
2.254829 -2.012767 9.650166 0.1784447 -0.7080294 0.6832656 255 255 0 255 0.740854 0.75
1.908975 -2.012767 8.172226 -0.1432631 -0.7080293 -0.6914985 255 255 0 255 0.740854 0.5
0.7575287 -2.012767 9.881435 0.07205274 -0.7080293 0.7024977 255 255 0 255 0.746951 0.75
0.6413348 -2.012767 8.368027 -0.03602703 -0.7080294 -0.7052634 255 255 0 255 0.746951 0.5
-0.7575263 -2.012767 9.881435 -0.03602636 -0.7080293 0.7052636 255 255 0 255 0.753049 0.75
-0.6413373 -2.012767 8.368027 0.07205409 -0.7080294 -0.7024975 255 255 0 255 0.753049 0.5
-2.254827 -2.012767 9.650166 -0.1432619 -0.7080293 0.6914988 255 255 0 255 0.759146 0.75
-1.908977 -2.012767 8.172226 0.178445 -0.7080294 -0.6832655 255 255 0 255 0.759146 0.5
-3.699276 -2.012767 9.193047 -0.2471406 -0.7080293 0.6615256 255 255 0 255 0.765244 0.75
-3.131873 -2.012767 7.785216 0.2806535 -0.7080293 -0.6480186 255 255 0 255 0.765244 0.5
-5.057016 -2.012767 8.520785 -0.3452254 -0.7080293 0.616047 255 255 0 255 0.771341 0.75
-4.281359 -2.012767 7.216063 0.3762839 -0.7080293 -0.5975827 255 255 0 255 0.771341 0.5
-6.296225 -2.012767 7.649146 -0.4352185 -0.7080293 0.556129 255 255 0 255 0.777439 0.75
-5.330495 -2.012767 6.478115 0.4630945 -0.7080292 -0.53314 255 255 0 255 0.777439 0.5
-7.387856 -2.012767 6.598557 -0.5150111 -0.7080294 0.4831749 255 255 0 255 0.783537 0.75
-6.254688 -2.012766 5.588675 0.5390507 -0.7080292 -0.4562007 255 255 0 255 0.783537 0.5
-8.306321 -2.012766 5.393634 -0.5827316 -0.7080294 0.3988963 255 255 0 255 0.789634 0.75
-7.032276 -2.012766 4.568577 0.6023719 -0.7080294 -0.3685682 255 255 0 255 0.789634 0.5
-9.030093 -2.012766 4.062645 -0.6367931 -0.7080294 0.3052685 255 255 0 255 0.795732 0.75
-7.645034 -2.012766 3.441727 0.6515741 -0.7080294 -0.272297 255 255 0 255 0.795732 0.5
-9.542209 -2.012766 2.636765 -0.6759292 -0.7080294 0.2044851 255 255 0 255 0.801829 0.75
-8.078598 -2.012766 2.234554 0.685504 -0.7080294 -0.169643 255 255 0 255 0.801829 0.5
-9.830664 -2.012767 1.149426 -0.6992221 -0.7080294 0.09890851 255 255 0 255 0.807927 0.75
-8.322807 -2.012767 0.9753456 0.703366 -0.7080294 -0.06301358 255 255 0 255 0.807927 0.5
-9.888693 -2.012767 -0.3645229 -0.7061259 -0.7080293 -0.008987099 255 255 0 255 0.814024 0.75
-8.371937 -2.012767 -0.3063831 0.7047419 -0.7080294 0.04509285 255 255 0 255 0.814024 0.5
-9.71494 -2.012767 -1.869583 -0.6964785 -0.7080293 -0.1166712 255 255 0 255 0.820122 0.75
-8.224835 -2.012767 -1.580593 0.6895992 -0.7080294 0.1521426 255 255 0 255 0.820122 0.5
-9.31348 -2.012767 -3.330473 -0.6705065 -0.7080294 -0.2216204 255 255 0 255 0.826219 0.75
-7.884952 -2.012767 -2.817413 0.6582928 -0.7080294 0.2556268 255 255 0 255 0.82622 0.5
-8.693718 -2.012767 -4.712975 -0.628818 -0.7080294 -0.3213758 255 255 0 255 0.832317 0.75
-7.36025 -2.012767 -3.987854 0.6115568 -0.7080294 0.3531186 255 255 0 255 0.832317 0.5
-7.870183 -2.012767 -5.984653 -0.572391 -0.7080294 -0.4135976 255 255 0 255 0.838415 0.75
-6.663031 -2.012767 -5.064493 0.5504866 -0.7080293 0.4423337 255 255 0 255 0.838415 0.5
-6.862179 -2.012767 -7.115725 -0.5025474 -0.7080294 -0.4961255 255 255 0 255 0.844512 0.75
-5.809636 -2.012767 -6.022074 0.4765126 -0.7080293 0.5211816 255 255 0 255 0.844512 0.5
-5.693329 -2.012767 -8.079674 -0.4209241 -0.7080293 -0.5670251 255 255 0 255 0.85061 0.75
-4.820068 -2.012767 -6.838163 0.3913704 -0.7080293 0.5878127 255 255 0 255 0.85061 0.5
-4.391034 -2.012767 -8.853893 -0.3294351 -0.7080293 -0.6246335 255 255 0 255 0.856707 0.75
-3.717521 -2.012767 -7.493632 0.2970545 -0.7080294 0.6406661 255 255 0 255 0.856707 0.5
-2.985815 -2.012768 -9.420244 -0.2302248 -0.7080294 -0.6676008 255 255 0 255 0.862805 0.75
-2.52784 -2.012767 -7.973113 0.195776 -0.7080294 0.6785029 255 255 0 255 0.862805 0.5
-1.278909 2.012767 -8.265385 0.1256177 0.7080293 0.6949207 255 255 0 255 0.131098 0.5
-2.985813 2.012768 -9.420244 -0.1957757 0.7080294 -0.678503 255 255 0 255 0.137195 0.75
-2.527842 2.012767 -7.973113 0.2302247 0.7080293 0.667601 255 255 0 255 0.137195 0.5
-4.39103 2.012767 -8.853893 -0.2970545 0.7080293 -0.6406662 255 255 0 255 0.143293 0.75
-3.717525 2.012767 -7.493632 0.3294356 0.7080294 0.6246331 255 255 0 255 0.143293 0.5
-5.693327 2.012767 -8.079674 -0.3913698 0.7080294 -0.5878128 255 255 0 255 0.14939 0.75
-4.82007 2.012767 -6.838163 0.4209241 0.7080294 0.5670249 255 255 0 255 0.14939 0.5
-6.862176 2.012767 -7.115734 -0.4765128 0.7080294 -0.5211813 255 255 0 255 0.155488 0.75
-5.809639 2.012767 -6.022074 0.5025473 0.7080296 0.4961255 255 255 0 255 0.155488 0.5
-7.870182 2.012767 -5.984663 -0.5504867 0.7080293 -0.4423336 255 255 0 255 0.161585 0.75
-6.663032 2.012767 -5.064484 0.5723911 0.7080293 0.4135976 255 255 0 255 0.161585 0.5
-8.693717 2.012767 -4.712975 -0.6115568 0.7080293 -0.3531188 255 255 0 255 0.167683 0.75
-7.360251 2.012767 -3.987854 0.628818 0.7080293 0.3213758 255 255 0 255 0.167683 0.5
-9.313478 2.012767 -3.330484 -0.6582928 0.7080294 -0.2556266 255 255 0 255 0.173781 0.75
-7.884953 2.012767 -2.817413 0.6705064 0.7080293 0.2216206 255 255 0 255 0.17378 0.5
-9.71494 2.012767 -1.869583 -0.6895992 0.7080294 -0.1521427 255 255 0 255 0.179878 0.75
-8.224836 2.012767 -1.580593 0.6964785 0.7080294 0.1166708 255 255 0 255 0.179878 0.5
-9.888693 2.012767 -0.3645229 -0.7047418 0.7080294 -0.04509333 255 255 0 255 0.185976 0.75
-8.371937 2.012767 -0.3063831 0.7061259 0.7080293 0.008986801 255 255 0 255 0.185976 0.5
-9.830664 2.012767 1.149418 -0.7033659 0.7080294 0.06301376 255 255 0 255 0.192073 0.75
-8.322806 2.012766 0.9753455 0.6992223 0.7080293 -0.09890804 255 255 0 255 0.192073 0.5
-9.54221 2.012767 2.636757 -0.6855038 0.7080294 0.1696436 255 255 0 255 0.198171 0.75
-8.078598 2.012767 2.234554 0.6759294 0.7080293 -0.2044846 255 255 0 255 0.198171 0.5
-9.030095 2.012767 4.062645 -0.651574 0.7080294 0.2722973 255 255 0 255 0.204268 0.75
-7.645032 2.012767 3.441727 0.6367934 0.7080293 -0.3052683 255 255 0 255 0.204268 0.5
-8.306323 2.012767 5.393635 -0.6023719 0.7080294 0.3685682 255 255 0 255 0.210366 0.75
-7.032274 2.012767 4.568577 0.5827314 0.7080294 -0.3988967 255 255 0 255 0.210366 0.5
-7.387859 2.012767 6.598545 -0.5390511 0.7080294 0.4561999 255 255 0 255 0.216463 0.75
-6.254686 2.012767 5.588675 0.5150105 0.7080294 -0.4831755 255 255 0 255 0.216463 0.5
-6.296228 2.012767 7.649136 -0.4630945 0.7080294 0.5331395 255 255 0 255 0.222561 0.75
-5.330493 2.012767 6.478127 0.4352184 0.7080294 -0.5561288 255 255 0 255 0.222561 0.5
-5.057019 2.012767 8.520774 -0.3762837 0.7080294 0.5975826 255 255 0 255 0.228659 0.75
-4.281357 2.012767 7.216063 0.3452252 0.7080294 -0.616047 255 255 0 255 0.228658 0.5
-3.699279 2.012767 9.193035 -0.2806537 0.7080294 0.6480184 255 255 0 255 0.234756 0.75
-3.13187 2.012767 7.785216 0.2471402 0.7080293 -0.6615257 255 255 0 255 0.234756 0.5
-2.254829 2.012767 9.650166 -0.1784446 0.7080294 0.6832656 255 255 0 255 0.240854 0.75
-1.908975 2.012767 8.172226 0.1432631 0.7080293 -0.6914985 255 255 0 255 0.240854 0.5
-0.7575293 2.012767 9.881435 -0.07205272 0.7080293 0.7024977 255 255 0 255 0.246951 0.75
-0.6413352 2.012767 8.368027 0.03602704 0.7080294 -0.7052634 255 255 0 255 0.246951 0.5
0.7575268 2.012767 9.881435 0.03602638 0.7080293 0.7052636 255 255 0 255 0.253049 0.75
0.6413367 2.012767 8.368027 -0.07205406 0.7080294 -0.7024975 255 255 0 255 0.253049 0.5
2.254827 2.012767 9.650166 0.1432619 0.7080294 0.6914986 255 255 0 255 0.259146 0.75
1.908978 2.012767 8.172226 -0.1784451 0.7080294 -0.6832655 255 255 0 255 0.259146 0.5
3.699276 2.012767 9.193047 0.2471406 0.7080293 0.6615256 255 255 0 255 0.265244 0.75
3.131873 2.012767 7.785216 -0.2806534 0.7080294 -0.6480185 255 255 0 255 0.265244 0.5
5.057017 2.012767 8.520785 0.3452253 0.7080292 0.6160472 255 255 0 255 0.271342 0.75
4.28136 2.012767 7.216063 -0.3762839 0.7080293 -0.5975826 255 255 0 255 0.271341 0.5
6.296226 2.012767 7.649146 0.4352185 0.7080293 0.556129 255 255 0 255 0.277439 0.75
5.330495 2.012767 6.478115 -0.4630945 0.7080292 -0.5331399 255 255 0 255 0.277439 0.5
7.387856 2.012767 6.598557 0.515011 0.7080294 0.483175 255 255 0 255 0.283537 0.75
6.254688 2.012767 5.588675 -0.5390508 0.7080293 -0.4562005 255 255 0 255 0.283537 0.5
8.306321 2.012767 5.393635 0.5827315 0.7080294 0.3988966 255 255 0 255 0.289634 0.75
7.032276 2.012767 4.568577 -0.6023722 0.7080293 -0.368568 255 255 0 255 0.289634 0.5
9.030093 2.012767 4.062645 0.6367932 0.7080294 0.3052686 255 255 0 255 0.295732 0.75
7.645034 2.012767 3.441727 -0.6515741 0.7080294 -0.2722969 255 255 0 255 0.295732 0.5
9.542209 2.012767 2.636765 0.6759292 0.7080294 0.2044847 255 255 0 255 0.301829 0.75
8.078598 2.012767 2.234554 -0.6855039 0.7080293 -0.1696437 255 255 0 255 0.301829 0.5
9.830662 2.012767 1.149426 0.6992221 0.7080294 0.09890801 255 255 0 255 0.307927 0.75
8.322807 2.012766 0.9753455 -0.7033661 0.7080293 -0.06301373 255 255 0 255 0.307927 0.5
9.888693 2.012767 -0.3645229 0.7061257 0.7080294 -0.008986831 255 255 0 255 0.314024 0.75
8.371937 2.012767 -0.3063831 -0.704742 0.7080293 0.04509291 255 255 0 255 0.314024 0.5
9.71494 2.012767 -1.869583 0.6964785 0.7080293 -0.1166712 255 255 0 255 0.320122 0.75
8.224835 2.012767 -1.580593 -0.6895992 0.7080293 0.1521429 255 255 0 255 0.320122 0.5
9.31348 2.012767 -3.330473 0.6705065 0.7080294 -0.2216204 255 255 0 255 0.326219 0.75
7.884951 2.012767 -2.817413 -0.6582928 0.7080294 0.2556269 255 255 0 255 0.326219 0.5
8.693718 2.012767 -4.712975 0.6288179 0.7080294 -0.3213759 255 255 0 255 0.332317 0.75
7.36025 2.012767 -3.987854 -0.6115568 0.7080294 0.3531185 255 255 0 255 0.332317 0.5
7.870182 2.012767 -5.984653 0.5723909 0.7080294 -0.4135978 255 255 0 255 0.338415 0.75
6.663031 2.012767 -5.064493 -0.5504864 0.7080293 0.4423339 255 255 0 255 0.338415 0.5
6.862179 2.012767 -7.115725 0.5025474 0.7080294 -0.4961255 255 255 0 255 0.344512 0.75
5.809635 2.012767 -6.022074 -0.4765128 0.7080293 0.5211815 255 255 0 255 0.344512 0.5
5.693328 2.012767 -8.079674 0.4209241 0.7080293 -0.567025 255 255 0 255 0.35061 0.75
4.820069 2.012767 -6.838163 -0.3913706 0.7080293 0.5878125 255 255 0 255 0.35061 0.5
4.391034 2.012767 -8.853893 0.3294351 0.7080294 -0.6246334 255 255 0 255 0.356707 0.75
3.717521 2.012767 -7.493632 -0.2970544 0.7080294 0.6406661 255 255 0 255 0.356707 0.5
2.985815 2.012768 -9.420244 0.2302248 0.7080293 -0.6676009 255 255 0 255 0.362805 0.75
2.52784 2.012767 -7.973113 -0.195776 0.7080294 0.6785029 255 255 0 255 0.362805 0.5
7.301569e-07 2.012767 -9.881433 0.8060831 0.4190819 -0.4178522 255 255 0 255 0.375 1
7.301569e-07 -2.012767 -9.881433 0.2872281 -0.6783053 -0.6763149 255 255 0 255 0.625 1
1.278909 2.012767 -8.265385 -0.08990811 0.7080295 0.7004362 255 255 0 255 0.368902 0.5
-1.510611 -2.012767 -9.765453 -0.1256177 -0.7080294 -0.6949205 255 255 0 255 0.868902 0.75
7.301569e-07 -2.012767 -9.881433 0.2872281 -0.6783053 -0.6763149 255 255 0 255 0.875 0.75
7.301569e-07 -2.012767 -8.363564 0.8269104 -0.3982138 0.3970454 255 255 0 255 0.875 0.5
1.278909 -2.012767 -8.265385 -0.1256177 -0.7080293 0.6949207 255 255 0 255 0.631098 0.5
7.301569e-07 2.012767 -8.363564 0.3779894 0.6556075 0.6536841 255 255 0 255 0.125 0.5
7.301569e-07 2.012767 -9.881433 0.8060831 0.4190819 -0.4178522 255 255 0 255 0.125 0.75
-1.510611 2.012767 -9.765453 -0.08990885 0.7080294 -0.7004362 255 255 0 255 0.131098 0.75
1.510611 2.012767 -9.765453 0.1256177 0.7080294 -0.6949205 255 255 0 255 0.375 0.756098
1.510611 -2.012767 -9.765453 0.08990885 -0.7080294 -0.7004362 255 255 0 255 0.625 0.756098
2.985815 2.012768 -9.420244 0.2302248 0.7080293 -0.6676009 255 255 0 255 0.375 0.762195
2.985813 -2.012768 -9.420244 0.1957757 -0.7080294 -0.678503 255 255 0 255 0.625 0.762195
4.391034 2.012767 -8.853893 0.3294351 0.7080294 -0.6246334 255 255 0 255 0.375 0.768293
4.39103 -2.012767 -8.853893 0.2970546 -0.7080293 -0.6406661 255 255 0 255 0.625 0.768293
5.693328 2.012767 -8.079674 0.4209241 0.7080293 -0.567025 255 255 0 255 0.375 0.77439
5.693327 -2.012767 -8.079674 0.3913699 -0.7080294 -0.5878128 255 255 0 255 0.625 0.77439
6.862179 2.012767 -7.115725 0.5025474 0.7080294 -0.4961255 255 255 0 255 0.375 0.780488
6.862175 -2.012767 -7.115734 0.4765128 -0.7080294 -0.5211813 255 255 0 255 0.625 0.780488
7.870182 2.012767 -5.984653 0.5723909 0.7080294 -0.4135978 255 255 0 255 0.375 0.786585
7.870182 -2.012767 -5.984663 0.5504864 -0.7080294 -0.4423338 255 255 0 255 0.625 0.786585
8.693718 2.012767 -4.712975 0.6288179 0.7080294 -0.3213759 255 255 0 255 0.375 0.792683
8.693717 -2.012767 -4.712975 0.6115566 -0.7080293 -0.353119 255 255 0 255 0.625 0.792683
9.31348 2.012767 -3.330473 0.6705065 0.7080294 -0.2216204 255 255 0 255 0.375 0.79878
9.313478 -2.012767 -3.330484 0.6582928 -0.7080294 -0.2556266 255 255 0 255 0.625 0.79878
9.71494 2.012767 -1.869583 0.6964785 0.7080293 -0.1166712 255 255 0 255 0.375 0.804878
9.71494 -2.012767 -1.869583 0.6895992 -0.7080294 -0.1521427 255 255 0 255 0.625 0.804878
9.888693 2.012767 -0.3645229 0.7061257 0.7080294 -0.008986831 255 255 0 255 0.375 0.810975
9.888693 -2.012767 -0.3645229 0.7047418 -0.7080294 -0.04509333 255 255 0 255 0.625 0.810976
9.830662 2.012767 1.149426 0.6992221 0.7080294 0.09890801 255 255 0 255 0.375 0.817073
9.830663 -2.012767 1.149418 0.703366 -0.7080293 0.06301392 255 255 0 255 0.625 0.817073
9.542209 2.012767 2.636765 0.6759292 0.7080294 0.2044847 255 255 0 255 0.375 0.823171
9.54221 -2.012766 2.636757 0.6855037 -0.7080294 0.169644 255 255 0 255 0.625 0.823171
9.030093 2.012767 4.062645 0.6367932 0.7080294 0.3052686 255 255 0 255 0.375 0.829268
9.030095 -2.012766 4.062645 0.651574 -0.7080294 0.2722973 255 255 0 255 0.625 0.829268
8.306321 2.012767 5.393635 0.5827315 0.7080294 0.3988966 255 255 0 255 0.375 0.835366
8.306323 -2.012766 5.393634 0.6023719 -0.7080294 0.3685682 255 255 0 255 0.625 0.835366
7.387856 2.012767 6.598557 0.515011 0.7080294 0.483175 255 255 0 255 0.375 0.841463
7.387859 -2.012767 6.598545 0.5390512 -0.7080296 0.4561996 255 255 0 255 0.625 0.841463
6.296226 2.012767 7.649146 0.4352185 0.7080293 0.556129 255 255 0 255 0.375 0.847561
6.296228 -2.012767 7.649136 0.4630947 -0.7080296 0.5331392 255 255 0 255 0.625 0.847561
5.057017 2.012767 8.520785 0.3452253 0.7080292 0.6160472 255 255 0 255 0.375 0.853658
5.057019 -2.012767 8.520774 0.3762836 -0.7080295 0.5975826 255 255 0 255 0.625 0.853658
3.699276 2.012767 9.193047 0.2471406 0.7080293 0.6615256 255 255 0 255 0.375 0.859756
3.699279 -2.012767 9.193035 0.2806536 -0.7080294 0.6480184 255 255 0 255 0.625 0.859756
2.254827 2.012767 9.650166 0.1432619 0.7080294 0.6914986 255 255 0 255 0.375 0.865854
2.254829 -2.012767 9.650166 0.1784447 -0.7080294 0.6832656 255 255 0 255 0.625 0.865854
0.7575268 2.012767 9.881435 0.03602638 0.7080293 0.7052636 255 255 0 255 0.375 0.871951
0.7575287 -2.012767 9.881435 0.07205274 -0.7080293 0.7024977 255 255 0 255 0.625 0.871951
-0.7575293 2.012767 9.881435 -0.07205272 0.7080293 0.7024977 255 255 0 255 0.375 0.878049
-0.7575263 -2.012767 9.881435 -0.03602636 -0.7080293 0.7052636 255 255 0 255 0.625 0.878049
-2.254829 2.012767 9.650166 -0.1784446 0.7080294 0.6832656 255 255 0 255 0.375 0.884146
-2.254827 -2.012767 9.650166 -0.1432619 -0.7080293 0.6914988 255 255 0 255 0.625 0.884146
-3.699279 2.012767 9.193035 -0.2806537 0.7080294 0.6480184 255 255 0 255 0.375 0.890244
-3.699276 -2.012767 9.193047 -0.2471406 -0.7080293 0.6615256 255 255 0 255 0.625 0.890244
-5.057019 2.012767 8.520774 -0.3762837 0.7080294 0.5975826 255 255 0 255 0.375 0.896341
-5.057016 -2.012767 8.520785 -0.3452254 -0.7080293 0.616047 255 255 0 255 0.625 0.896341
-6.296228 2.012767 7.649136 -0.4630945 0.7080294 0.5331395 255 255 0 255 0.375 0.902439
-6.296225 -2.012767 7.649146 -0.4352185 -0.7080293 0.556129 255 255 0 255 0.625 0.902439
-7.387859 2.012767 6.598545 -0.5390511 0.7080294 0.4561999 255 255 0 255 0.375 0.908537
-7.387856 -2.012767 6.598557 -0.5150111 -0.7080294 0.4831749 255 255 0 255 0.625 0.908536
-8.306323 2.012767 5.393635 -0.6023719 0.7080294 0.3685682 255 255 0 255 0.375 0.914634
-8.306321 -2.012766 5.393634 -0.5827316 -0.7080294 0.3988963 255 255 0 255 0.625 0.914634
-9.030095 2.012767 4.062645 -0.651574 0.7080294 0.2722973 255 255 0 255 0.375 0.920732
-9.030093 -2.012766 4.062645 -0.6367931 -0.7080294 0.3052685 255 255 0 255 0.625 0.920732
-9.54221 2.012767 2.636757 -0.6855038 0.7080294 0.1696436 255 255 0 255 0.375 0.926829
-9.542209 -2.012766 2.636765 -0.6759292 -0.7080294 0.2044851 255 255 0 255 0.625 0.926829
-9.830664 2.012767 1.149418 -0.7033659 0.7080294 0.06301376 255 255 0 255 0.375 0.932927
-9.830664 -2.012767 1.149426 -0.6992221 -0.7080294 0.09890851 255 255 0 255 0.625 0.932927
-9.888693 2.012767 -0.3645229 -0.7047418 0.7080294 -0.04509333 255 255 0 255 0.375 0.939024
-9.888693 -2.012767 -0.3645229 -0.7061259 -0.7080293 -0.008987099 255 255 0 255 0.625 0.939024
-9.71494 2.012767 -1.869583 -0.6895992 0.7080294 -0.1521427 255 255 0 255 0.375 0.945122
-9.71494 -2.012767 -1.869583 -0.6964785 -0.7080293 -0.1166712 255 255 0 255 0.625 0.945122
-9.313478 2.012767 -3.330484 -0.6582928 0.7080294 -0.2556266 255 255 0 255 0.375 0.951219
-9.31348 -2.012767 -3.330473 -0.6705065 -0.7080294 -0.2216204 255 255 0 255 0.625 0.951219
-8.693717 2.012767 -4.712975 -0.6115568 0.7080293 -0.3531188 255 255 0 255 0.375 0.957317
-8.693718 -2.012767 -4.712975 -0.628818 -0.7080294 -0.3213758 255 255 0 255 0.625 0.957317
-7.870182 2.012767 -5.984663 -0.5504867 0.7080293 -0.4423336 255 255 0 255 0.375 0.963415
-7.870183 -2.012767 -5.984653 -0.572391 -0.7080294 -0.4135976 255 255 0 255 0.625 0.963414
-6.862176 2.012767 -7.115734 -0.4765128 0.7080294 -0.5211813 255 255 0 255 0.375 0.969512
-6.862179 -2.012767 -7.115725 -0.5025474 -0.7080294 -0.4961255 255 255 0 255 0.625 0.969512
-5.693327 2.012767 -8.079674 -0.3913698 0.7080294 -0.5878128 255 255 0 255 0.375 0.97561
-5.693329 -2.012767 -8.079674 -0.4209241 -0.7080293 -0.5670251 255 255 0 255 0.625 0.97561
-4.39103 2.012767 -8.853893 -0.2970545 0.7080293 -0.6406662 255 255 0 255 0.375 0.981707
-4.391034 -2.012767 -8.853893 -0.3294351 -0.7080293 -0.6246335 255 255 0 255 0.625 0.981707
-2.985813 2.012768 -9.420244 -0.1957757 0.7080294 -0.678503 255 255 0 255 0.375 0.987805
-2.985815 -2.012768 -9.420244 -0.2302248 -0.7080294 -0.6676008 255 255 0 255 0.625 0.987805
-1.278909 2.012767 -8.265385 0.1256177 0.7080293 0.6949207 255 255 0 255 0.375 0.256098
-1.278909 -2.012767 -8.265385 0.08990811 -0.7080295 0.7004362 255 255 0 255 0.625 0.256098
-2.527842 2.012767 -7.973113 0.2302247 0.7080293 0.667601 255 255 0 255 0.375 0.262195
-2.52784 -2.012767 -7.973113 0.195776 -0.7080294 0.6785029 255 255 0 255 0.625 0.262195
-3.717525 2.012767 -7.493632 0.3294356 0.7080294 0.6246331 255 255 0 255 0.375 0.268293
-3.717521 -2.012767 -7.493632 0.2970545 -0.7080294 0.6406661 255 255 0 255 0.625 0.268293
-4.82007 2.012767 -6.838163 0.4209241 0.7080294 0.5670249 255 255 0 255 0.375 0.27439
-4.820068 -2.012767 -6.838163 0.3913704 -0.7080293 0.5878127 255 255 0 255 0.625 0.27439
-5.809639 2.012767 -6.022074 0.5025473 0.7080296 0.4961255 255 255 0 255 0.375 0.280488
-5.809636 -2.012767 -6.022074 0.4765126 -0.7080293 0.5211816 255 255 0 255 0.625 0.280488
-6.663032 2.012767 -5.064484 0.5723911 0.7080293 0.4135976 255 255 0 255 0.375 0.286585
-6.663031 -2.012767 -5.064493 0.5504866 -0.7080293 0.4423337 255 255 0 255 0.625 0.286585
-7.360251 2.012767 -3.987854 0.628818 0.7080293 0.3213758 255 255 0 255 0.375 0.292683
-7.36025 -2.012767 -3.987854 0.6115568 -0.7080294 0.3531186 255 255 0 255 0.625 0.292683
-7.884953 2.012767 -2.817413 0.6705064 0.7080293 0.2216206 255 255 0 255 0.375 0.29878
-7.884952 -2.012767 -2.817413 0.6582928 -0.7080294 0.2556268 255 255 0 255 0.625 0.29878
-8.224836 2.012767 -1.580593 0.6964785 0.7080294 0.1166708 255 255 0 255 0.375 0.304878
-8.224835 -2.012767 -1.580593 0.6895992 -0.7080294 0.1521426 255 255 0 255 0.625 0.304878
-8.371937 2.012767 -0.3063831 0.7061259 0.7080293 0.008986801 255 255 0 255 0.375 0.310976
-8.371937 -2.012767 -0.3063831 0.7047419 -0.7080294 0.04509285 255 255 0 255 0.625 0.310976
-8.322806 2.012766 0.9753455 0.6992223 0.7080293 -0.09890804 255 255 0 255 0.375 0.317073
-8.322807 -2.012767 0.9753456 0.703366 -0.7080294 -0.06301358 255 255 0 255 0.625 0.317073
-8.078598 2.012767 2.234554 0.6759294 0.7080293 -0.2044846 255 255 0 255 0.375 0.323171
-8.078598 -2.012766 2.234554 0.685504 -0.7080294 -0.169643 255 255 0 255 0.625 0.323171
-7.645032 2.012767 3.441727 0.6367934 0.7080293 -0.3052683 255 255 0 255 0.375 0.329268
-7.645034 -2.012766 3.441727 0.6515741 -0.7080294 -0.272297 255 255 0 255 0.625 0.329268
-7.032274 2.012767 4.568577 0.5827314 0.7080294 -0.3988967 255 255 0 255 0.375 0.335366
-7.032276 -2.012766 4.568577 0.6023719 -0.7080294 -0.3685682 255 255 0 255 0.625 0.335366
-6.254686 2.012767 5.588675 0.5150105 0.7080294 -0.4831755 255 255 0 255 0.375 0.341463
-6.254688 -2.012766 5.588675 0.5390507 -0.7080292 -0.4562007 255 255 0 255 0.625 0.341463
-5.330493 2.012767 6.478127 0.4352184 0.7080294 -0.5561288 255 255 0 255 0.375 0.347561
-5.330495 -2.012767 6.478115 0.4630945 -0.7080292 -0.53314 255 255 0 255 0.625 0.347561
-4.281357 2.012767 7.216063 0.3452252 0.7080294 -0.616047 255 255 0 255 0.375 0.353658
-4.281359 -2.012767 7.216063 0.3762839 -0.7080293 -0.5975827 255 255 0 255 0.625 0.353658
-3.13187 2.012767 7.785216 0.2471402 0.7080293 -0.6615257 255 255 0 255 0.375 0.359756
-3.131873 -2.012767 7.785216 0.2806535 -0.7080293 -0.6480186 255 255 0 255 0.625 0.359756
-1.908975 2.012767 8.172226 0.1432631 0.7080293 -0.6914985 255 255 0 255 0.375 0.365854
-1.908977 -2.012767 8.172226 0.178445 -0.7080294 -0.6832655 255 255 0 255 0.625 0.365854
-0.6413352 2.012767 8.368027 0.03602704 0.7080294 -0.7052634 255 255 0 255 0.375 0.371951
-0.6413373 -2.012767 8.368027 0.07205409 -0.7080294 -0.7024975 255 255 0 255 0.625 0.371951
0.6413367 2.012767 8.368027 -0.07205406 0.7080294 -0.7024975 255 255 0 255 0.375 0.378049
0.6413348 -2.012767 8.368027 -0.03602703 -0.7080294 -0.7052634 255 255 0 255 0.625 0.378049
1.908978 2.012767 8.172226 -0.1784451 0.7080294 -0.6832655 255 255 0 255 0.375 0.384146
1.908975 -2.012767 8.172226 -0.1432631 -0.7080293 -0.6914985 255 255 0 255 0.625 0.384146
3.131873 2.012767 7.785216 -0.2806534 0.7080294 -0.6480185 255 255 0 255 0.375 0.390244
3.13187 -2.012767 7.785216 -0.2471403 -0.7080293 -0.6615257 255 255 0 255 0.625 0.390244
4.28136 2.012767 7.216063 -0.3762839 0.7080293 -0.5975826 255 255 0 255 0.375 0.396341
4.281357 -2.012767 7.216063 -0.3452252 -0.7080294 -0.616047 255 255 0 255 0.625 0.396341
5.330495 2.012767 6.478115 -0.4630945 0.7080292 -0.5331399 255 255 0 255 0.375 0.402439
5.330493 -2.012767 6.478127 -0.4352183 -0.7080295 -0.5561289 255 255 0 255 0.625 0.402439
6.254688 2.012767 5.588675 -0.5390508 0.7080293 -0.4562005 255 255 0 255 0.375 0.408537
6.254687 -2.012766 5.588675 -0.5150104 -0.7080293 -0.4831757 255 255 0 255 0.625 0.408536
7.032276 2.012767 4.568577 -0.6023722 0.7080293 -0.368568 255 255 0 255 0.375 0.414634
7.032275 -2.012766 4.568577 -0.5827313 -0.7080294 -0.3988968 255 255 0 255 0.625 0.414634
7.645034 2.012767 3.441727 -0.6515741 0.7080294 -0.2722969 255 255 0 255 0.375 0.420732
7.645032 -2.012766 3.441727 -0.6367934 -0.7080293 -0.3052681 255 255 0 255 0.625 0.420732
8.078598 2.012767 2.234554 -0.6855039 0.7080293 -0.1696437 255 255 0 255 0.375 0.426829
8.078598 -2.012766 2.234554 -0.6759294 -0.7080293 -0.2044845 255 255 0 255 0.625 0.426829
8.322807 2.012766 0.9753455 -0.7033661 0.7080293 -0.06301373 255 255 0 255 0.375 0.432927
8.322806 -2.012767 0.9753456 -0.6992223 -0.7080293 -0.09890774 255 255 0 255 0.625 0.432927
8.371937 2.012767 -0.3063831 -0.704742 0.7080293 0.04509291 255 255 0 255 0.375 0.439024
8.371937 -2.012767 -0.3063831 -0.7061259 -0.7080293 0.008986652 255 255 0 255 0.625 0.439024
8.224835 2.012767 -1.580593 -0.6895992 0.7080293 0.1521429 255 255 0 255 0.375 0.445122
8.224836 -2.012767 -1.580593 -0.6964785 -0.7080294 0.116671 255 255 0 255 0.625 0.445122
7.884951 2.012767 -2.817413 -0.6582928 0.7080294 0.2556269 255 255 0 255 0.375 0.45122
7.884952 -2.012767 -2.817413 -0.6705063 -0.7080294 0.2216209 255 255 0 255 0.625 0.451219
7.36025 2.012767 -3.987854 -0.6115568 0.7080294 0.3531185 255 255 0 255 0.375 0.457317
7.360251 -2.012767 -3.987854 -0.6288181 -0.7080293 0.3213757 255 255 0 255 0.625 0.457317
6.663031 2.012767 -5.064493 -0.5504864 0.7080293 0.4423339 255 255 0 255 0.375 0.463415
6.663032 -2.012767 -5.064484 -0.572391 -0.7080293 0.4135977 255 255 0 255 0.625 0.463415
5.809635 2.012767 -6.022074 -0.4765128 0.7080293 0.5211815 255 255 0 255 0.375 0.469512
5.809638 -2.012767 -6.022074 -0.5025471 -0.7080294 0.4961257 255 255 0 255 0.625 0.469512
4.820069 2.012767 -6.838163 -0.3913706 0.7080293 0.5878125 255 255 0 255 0.375 0.47561
4.82007 -2.012767 -6.838163 -0.4209244 -0.7080294 0.5670247 255 255 0 255 0.625 0.47561
3.717521 2.012767 -7.493632 -0.2970544 0.7080294 0.6406661 255 255 0 255 0.375 0.481707
3.717525 -2.012767 -7.493632 -0.3294356 -0.7080294 0.6246332 255 255 0 255 0.625 0.481707
2.52784 2.012767 -7.973113 -0.195776 0.7080294 0.6785029 255 255 0 255 0.375 0.487805
2.527842 -2.012767 -7.973113 -0.2302247 -0.7080293 0.667601 255 255 0 255 0.625 0.487805
3 0 1 2 
3 0 2 3 
3 4 5 6 
3 4 6 7 
3 5 8 9 
3 5 9 6 
3 10 168 169 
3 10 169 11 
3 170 12 8 
3 170 8 5 
3 13 171 172 
3 13 172 173 
3 6 9 14 
3 6 14 174 
3 174 14 15 
3 174 15 16 
3 16 15 17 
3 16 17 18 
3 18 17 19 
3 18 19 20 
3 20 19 21 
3 20 21 22 
3 22 21 23 
3 22 23 24 
3 24 23 25 
3 24 25 26 
3 26 25 27 
3 26 27 28 
3 28 27 29 
3 28 29 30 
3 30 29 31 
3 30 31 32 
3 32 31 33 
3 32 33 34 
3 34 33 35 
3 34 35 36 
3 36 35 37 
3 36 37 38 
3 38 37 39 
3 38 39 40 
3 40 39 41 
3 40 41 42 
3 42 41 43 
3 42 43 44 
3 44 43 45 
3 44 45 46 
3 46 45 47 
3 46 47 48 
3 48 47 49 
3 48 49 50 
3 50 49 51 
3 50 51 52 
3 52 51 53 
3 52 53 54 
3 54 53 55 
3 54 55 56 
3 56 55 57 
3 56 57 58 
3 58 57 59 
3 58 59 60 
3 60 59 61 
3 60 61 62 
3 62 61 63 
3 62 63 64 
3 64 63 65 
3 64 65 66 
3 66 65 67 
3 66 67 68 
3 68 67 69 
3 68 69 70 
3 70 69 71 
3 70 71 72 
3 72 71 73 
3 72 73 74 
3 74 73 75 
3 74 75 76 
3 76 75 77 
3 76 77 78 
3 78 77 79 
3 78 79 80 
3 80 79 81 
3 80 81 82 
3 82 81 83 
3 82 83 84 
3 84 83 85 
3 84 85 86 
3 86 85 87 
3 86 87 88 
3 88 87 89 
3 88 89 90 
3 90 89 171 
3 90 171 13 
3 175 176 177 
3 175 177 91 
3 91 177 92 
3 91 92 93 
3 93 92 94 
3 93 94 95 
3 95 94 96 
3 95 96 97 
3 97 96 98 
3 97 98 99 
3 99 98 100 
3 99 100 101 
3 101 100 102 
3 101 102 103 
3 103 102 104 
3 103 104 105 
3 105 104 106 
3 105 106 107 
3 107 106 108 
3 107 108 109 
3 109 108 110 
3 109 110 111 
3 111 110 112 
3 111 112 113 
3 113 112 114 
3 113 114 115 
3 115 114 116 
3 115 116 117 
3 117 116 118 
3 117 118 119 
3 119 118 120 
3 119 120 121 
3 121 120 122 
3 121 122 123 
3 123 122 124 
3 123 124 125 
3 125 124 126 
3 125 126 127 
3 127 126 128 
3 127 128 129 
3 129 128 130 
3 129 130 131 
3 131 130 132 
3 131 132 133 
3 133 132 134 
3 133 134 135 
3 135 134 136 
3 135 136 137 
3 137 136 138 
3 137 138 139 
3 139 138 140 
3 139 140 141 
3 141 140 142 
3 141 142 143 
3 143 142 144 
3 143 144 145 
3 145 144 146 
3 145 146 147 
3 147 146 148 
3 147 148 149 
3 149 148 150 
3 149 150 151 
3 151 150 152 
3 151 152 153 
3 153 152 154 
3 153 154 155 
3 155 154 156 
3 155 156 157 
3 157 156 158 
3 157 158 159 
3 159 158 160 
3 159 160 161 
3 161 160 162 
3 161 162 163 
3 163 162 164 
3 163 164 165 
3 165 164 166 
3 165 166 167 
3 167 166 12 
3 167 12 170 
3 8 178 179 
3 8 179 9 
3 178 180 181 
3 178 181 179 
3 180 182 183 
3 180 183 181 
3 182 184 185 
3 182 185 183 
3 184 186 187 
3 184 187 185 
3 186 188 189 
3 186 189 187 
3 188 190 191 
3 188 191 189 
3 190 192 193 
3 190 193 191 
3 192 194 195 
3 192 195 193 
3 194 196 197 
3 194 197 195 
3 196 198 199 
3 196 199 197 
3 198 200 201 
3 198 201 199 
3 200 202 203 
3 200 203 201 
3 202 204 205 
3 202 205 203 
3 204 206 207 
3 204 207 205 
3 206 208 209 
3 206 209 207 
3 208 210 211 
3 208 211 209 
3 210 212 213 
3 210 213 211 
3 212 214 215 
3 212 215 213 
3 214 216 217 
3 214 217 215 
3 216 218 219 
3 216 219 217 
3 218 220 221 
3 218 221 219 
3 220 222 223 
3 220 223 221 
3 222 224 225 
3 222 225 223 
3 224 226 227 
3 224 227 225 
3 226 228 229 
3 226 229 227 
3 228 230 231 
3 228 231 229 
3 230 232 233 
3 230 233 231 
3 232 234 235 
3 232 235 233 
3 234 236 237 
3 234 237 235 
3 236 238 239 
3 236 239 237 
3 238 240 241 
3 238 241 239 
3 240 242 243 
3 240 243 241 
3 242 244 245 
3 242 245 243 
3 244 246 247 
3 244 247 245 
3 246 248 249 
3 246 249 247 
3 248 250 251 
3 248 251 249 
3 250 252 253 
3 250 253 251 
3 252 254 255 
3 252 255 253 
3 254 10 11 
3 254 11 255 
3 1 256 257 
3 1 257 2 
3 256 258 259 
3 256 259 257 
3 258 260 261 
3 258 261 259 
3 260 262 263 
3 260 263 261 
3 262 264 265 
3 262 265 263 
3 264 266 267 
3 264 267 265 
3 266 268 269 
3 266 269 267 
3 268 270 271 
3 268 271 269 
3 270 272 273 
3 270 273 271 
3 272 274 275 
3 272 275 273 
3 274 276 277 
3 274 277 275 
3 276 278 279 
3 276 279 277 
3 278 280 281 
3 278 281 279 
3 280 282 283 
3 280 283 281 
3 282 284 285 
3 282 285 283 
3 284 286 287 
3 284 287 285 
3 286 288 289 
3 286 289 287 
3 288 290 291 
3 288 291 289 
3 290 292 293 
3 290 293 291 
3 292 294 295 
3 292 295 293 
3 294 296 297 
3 294 297 295 
3 296 298 299 
3 296 299 297 
3 298 300 301 
3 298 301 299 
3 300 302 303 
3 300 303 301 
3 302 304 305 
3 302 305 303 
3 304 306 307 
3 304 307 305 
3 306 308 309 
3 306 309 307 
3 308 310 311 
3 308 311 309 
3 310 312 313 
3 310 313 311 
3 312 314 315 
3 312 315 313 
3 314 316 317 
3 314 317 315 
3 316 318 319 
3 316 319 317 
3 318 320 321 
3 318 321 319 
3 320 322 323 
3 320 323 321 
3 322 324 325 
3 322 325 323 
3 324 326 327 
3 324 327 325 
3 326 328 329 
3 326 329 327 
3 328 330 331 
3 328 331 329 
3 330 332 333 
3 330 333 331 
3 332 4 7 
3 332 7 333 
